<?xml version="1.0" encoding="UTF-8" standalone="no"?>
<!DOCTYPE svg PUBLIC "-//W3C//DTD SVG 1.1//EN"
 "http://www.w3.org/Graphics/SVG/1.1/DTD/svg11.dtd">
<!-- Generated by graphviz version 5.0.0 (20220707.1540)
 -->
<!-- Title: StorageDiagram Pages: 1 -->
<svg width="1927pt" height="762pt"
 viewBox="0.00 0.00 1927.07 761.60" xmlns="http://www.w3.org/2000/svg" xmlns:xlink="http://www.w3.org/1999/xlink">
<g id="graph0" class="graph" transform="scale(1 1) rotate(0) translate(4 757.6)">
<title>StorageDiagram</title>
<polygon fill="white" stroke="transparent" points="-4,4 -4,-757.6 1923.07,-757.6 1923.07,4 -4,4"/>
<!-- 6 -->
<g id="node1" class="node">
<title>6</title>
<polygon fill="#f2f2f2" stroke="black" points="0,-388.5 0,-562.1 668.1,-562.1 668.1,-388.5 0,-388.5"/>
<text text-anchor="middle" x="334.05" y="-545.5" font-family="Courier New" font-size="14.00">Store &lt;&lt;Contract&gt;&gt;</text>
<polyline fill="none" stroke="black" points="0,-537.3 668.1,-537.3 "/>
<text text-anchor="middle" x="24.8" y="-520.7" font-family="Courier New" font-size="14.00">slot</text>
<polyline fill="none" stroke="black" points="0,-512.5 49.61,-512.5 "/>
<text text-anchor="middle" x="24.8" y="-495.9" font-family="Courier New" font-size="14.00">0</text>
<polyline fill="none" stroke="black" points="0,-487.7 49.61,-487.7 "/>
<text text-anchor="middle" x="24.8" y="-471.1" font-family="Courier New" font-size="14.00">1</text>
<polyline fill="none" stroke="black" points="0,-462.9 49.61,-462.9 "/>
<text text-anchor="middle" x="24.8" y="-446.3" font-family="Courier New" font-size="14.00">2</text>
<polyline fill="none" stroke="black" points="0,-438.1 49.61,-438.1 "/>
<text text-anchor="middle" x="24.8" y="-421.5" font-family="Courier New" font-size="14.00">3</text>
<polyline fill="none" stroke="black" points="0,-413.3 49.61,-413.3 "/>
<text text-anchor="middle" x="24.8" y="-396.7" font-family="Courier New" font-size="14.00">4&#45;43</text>
<polyline fill="none" stroke="black" points="49.61,-388.5 49.61,-537.3 "/>
<text text-anchor="middle" x="358.85" y="-520.7" font-family="Courier New" font-size="14.00">type: &lt;inherited contract&gt;.variable (bytes)</text>
<polyline fill="none" stroke="black" points="49.61,-512.5 668.1,-512.5 "/>
<text text-anchor="middle" x="124.82" y="-495.9" font-family="Courier New" font-size="14.00">unallocated (10)</text>
<polyline fill="none" stroke="black" points="200.03,-487.7 200.03,-512.5 "/>
<text text-anchor="middle" x="287.84" y="-495.9" font-family="Courier New" font-size="14.00">address: admin (20)</text>
<polyline fill="none" stroke="black" points="375.65,-487.7 375.65,-512.5 "/>
<text text-anchor="middle" x="446.66" y="-495.9" font-family="Courier New" font-size="14.00">bool: flag1 (1)</text>
<polyline fill="none" stroke="black" points="517.67,-487.7 517.67,-512.5 "/>
<text text-anchor="middle" x="592.88" y="-495.9" font-family="Courier New" font-size="14.00">uint8: index (1)</text>
<polyline fill="none" stroke="black" points="49.61,-487.7 668.1,-487.7 "/>
<text text-anchor="middle" x="358.63" y="-471.1" font-family="Courier New" font-size="14.00">mapping(address=&gt;uint256): balances (32)</text>
<polyline fill="none" stroke="black" points="49.61,-462.9 668.1,-462.9 "/>
<text text-anchor="middle" x="124.82" y="-446.3" font-family="Courier New" font-size="14.00">unallocated (10)</text>
<polyline fill="none" stroke="black" points="200.03,-438.1 200.03,-462.9 "/>
<text text-anchor="middle" x="292.04" y="-446.3" font-family="Courier New" font-size="14.00">address: admin2 (20)</text>
<polyline fill="none" stroke="black" points="384.05,-438.1 384.05,-462.9 "/>
<text text-anchor="middle" x="455.06" y="-446.3" font-family="Courier New" font-size="14.00">bool: flag3 (1)</text>
<polyline fill="none" stroke="black" points="526.08,-438.1 526.08,-462.9 "/>
<text text-anchor="middle" x="597.09" y="-446.3" font-family="Courier New" font-size="14.00">bool: flag2 (1)</text>
<polyline fill="none" stroke="black" points="49.61,-438.1 668.1,-438.1 "/>
<text text-anchor="middle" x="358.62" y="-421.5" font-family="Courier New" font-size="14.00">uint256: number (32)</text>
<polyline fill="none" stroke="black" points="49.61,-413.3 668.1,-413.3 "/>
<text text-anchor="middle" x="358.83" y="-396.7" font-family="Courier New" font-size="14.00">payments[8]: topPayments (1280)</text>
</g>
<!-- 5 -->
<g id="node6" class="node">
<title>5</title>
<polygon fill="#f2f2f2" stroke="black" points="704.1,-314.5 704.1,-488.1 1005.74,-488.1 1005.74,-314.5 704.1,-314.5"/>
<text text-anchor="middle" x="854.92" y="-471.5" font-family="Courier New" font-size="14.00">payments[8]: topPayments &lt;&lt;Array&gt;&gt;</text>
<polyline fill="none" stroke="black" points="704.1,-463.3 1005.74,-463.3 "/>
<text text-anchor="middle" x="743.6" y="-446.7" font-family="Courier New" font-size="14.00">slot</text>
<polyline fill="none" stroke="black" points="704.1,-438.5 783.1,-438.5 "/>
<text text-anchor="middle" x="743.6" y="-421.9" font-family="Courier New" font-size="14.00">4&#45;8</text>
<polyline fill="none" stroke="black" points="704.1,-413.7 783.1,-413.7 "/>
<text text-anchor="middle" x="743.6" y="-397.1" font-family="Courier New" font-size="14.00">9&#45;14</text>
<polyline fill="none" stroke="black" points="704.1,-388.9 783.1,-388.9 "/>
<text text-anchor="middle" x="743.6" y="-372.3" font-family="Courier New" font-size="14.00">14&#45;34</text>
<polyline fill="none" stroke="black" points="704.1,-364.1 783.1,-364.1 "/>
<text text-anchor="middle" x="743.6" y="-347.5" font-family="Courier New" font-size="14.00">34&#45;39</text>
<polyline fill="none" stroke="black" points="704.1,-339.3 783.1,-339.3 "/>
<text text-anchor="middle" x="743.6" y="-322.7" font-family="Courier New" font-size="14.00">39&#45;44</text>
<polyline fill="none" stroke="black" points="783.1,-314.5 783.1,-463.3 "/>
<text text-anchor="middle" x="894.02" y="-446.7" font-family="Courier New" font-size="14.00">type: variable (bytes)</text>
<polyline fill="none" stroke="black" points="783.1,-438.5 1004.93,-438.5 "/>
<text text-anchor="middle" x="893.91" y="-421.9" font-family="Courier New" font-size="14.00">payments (160)</text>
<polyline fill="none" stroke="black" points="783.1,-413.7 1004.93,-413.7 "/>
<text text-anchor="middle" x="893.91" y="-397.1" font-family="Courier New" font-size="14.00">payments (160)</text>
<polyline fill="none" stroke="black" points="783.1,-388.9 1004.93,-388.9 "/>
<text text-anchor="middle" x="893.61" y="-372.3" font-family="Courier New" font-size="14.00">&#45;&#45;&#45;&#45; (672)</text>
<polyline fill="none" stroke="black" points="783.1,-364.1 1004.93,-364.1 "/>
<text text-anchor="middle" x="893.91" y="-347.5" font-family="Courier New" font-size="14.00">payments (160)</text>
<polyline fill="none" stroke="black" points="783.1,-339.3 1004.93,-339.3 "/>
<text text-anchor="middle" x="893.91" y="-322.7" font-family="Courier New" font-size="14.00">payments (160)</text>
</g>
<!-- 6&#45;&gt;5 -->
<g id="edge1" class="edge">
<title>6:46&#45;&gt;5</title>
<path fill="none" stroke="black" d="M668.1,-401.3C676.5,-401.3 685.12,-401.3 693.82,-401.3"/>
<polygon fill="black" stroke="black" points="694.07,-404.8 704.07,-401.3 694.07,-397.8 694.07,-404.8"/>
</g>
<!-- 1 -->
<g id="node2" class="node">
<title>1</title>
<polygon fill="#f2f2f2" stroke="black" points="1041.74,-579.5 1041.74,-753.1 1919.07,-753.1 1919.07,-579.5 1041.74,-579.5"/>
<text text-anchor="middle" x="1480.41" y="-736.5" font-family="Courier New" font-size="14.00">payments &lt;&lt;Struct&gt;&gt;</text>
<polyline fill="none" stroke="black" points="1041.74,-728.3 1919.07,-728.3 "/>
<text text-anchor="middle" x="1066.54" y="-711.7" font-family="Courier New" font-size="14.00">slot</text>
<polyline fill="none" stroke="black" points="1041.74,-703.5 1091.35,-703.5 "/>
<text text-anchor="middle" x="1066.54" y="-686.9" font-family="Courier New" font-size="14.00">4</text>
<polyline fill="none" stroke="black" points="1041.74,-678.7 1091.35,-678.7 "/>
<text text-anchor="middle" x="1066.54" y="-662.1" font-family="Courier New" font-size="14.00">5</text>
<polyline fill="none" stroke="black" points="1041.74,-653.9 1091.35,-653.9 "/>
<text text-anchor="middle" x="1066.54" y="-637.3" font-family="Courier New" font-size="14.00">6</text>
<polyline fill="none" stroke="black" points="1041.74,-629.1 1091.35,-629.1 "/>
<text text-anchor="middle" x="1066.54" y="-612.5" font-family="Courier New" font-size="14.00">7</text>
<polyline fill="none" stroke="black" points="1041.74,-604.3 1091.35,-604.3 "/>
<text text-anchor="middle" x="1066.54" y="-587.7" font-family="Courier New" font-size="14.00">8</text>
<polyline fill="none" stroke="black" points="1091.35,-579.5 1091.35,-728.3 "/>
<text text-anchor="middle" x="1505.21" y="-711.7" font-family="Courier New" font-size="14.00">type: variable (bytes)</text>
<polyline fill="none" stroke="black" points="1091.35,-703.5 1919.07,-703.5 "/>
<text text-anchor="middle" x="1504.86" y="-686.9" font-family="Courier New" font-size="14.00">uint256: amount (32)</text>
<polyline fill="none" stroke="black" points="1091.35,-678.7 1919.07,-678.7 "/>
<text text-anchor="middle" x="1504.86" y="-662.1" font-family="Courier New" font-size="14.00">uint256: finalAmount (32)</text>
<polyline fill="none" stroke="black" points="1091.35,-653.9 1919.07,-653.9 "/>
<text text-anchor="middle" x="1504.77" y="-637.3" font-family="Courier New" font-size="14.00">uint256: initialAmount (32)</text>
<polyline fill="none" stroke="black" points="1091.35,-629.1 1919.07,-629.1 "/>
<text text-anchor="middle" x="1162.36" y="-612.5" font-family="Courier New" font-size="14.00">unallocated (9)</text>
<polyline fill="none" stroke="black" points="1233.37,-604.3 1233.37,-629.1 "/>
<text text-anchor="middle" x="1325.38" y="-612.5" font-family="Courier New" font-size="14.00">address: sender (20)</text>
<polyline fill="none" stroke="black" points="1417.4,-604.3 1417.4,-629.1 "/>
<text text-anchor="middle" x="1496.81" y="-612.5" font-family="Courier New" font-size="14.00">bool: checked (1)</text>
<polyline fill="none" stroke="black" points="1576.22,-604.3 1576.22,-629.1 "/>
<text text-anchor="middle" x="1676.63" y="-612.5" font-family="Courier New" font-size="14.00">uint8: paymentType (1)</text>
<polyline fill="none" stroke="black" points="1777.05,-604.3 1777.05,-629.1 "/>
<text text-anchor="middle" x="1848.06" y="-612.5" font-family="Courier New" font-size="14.00">bool: valid (1)</text>
<polyline fill="none" stroke="black" points="1091.35,-604.3 1919.07,-604.3 "/>
<text text-anchor="middle" x="1285.56" y="-587.7" font-family="Courier New" font-size="14.00">unallocated (12)</text>
<polyline fill="none" stroke="black" points="1479.77,-579.5 1479.77,-604.3 "/>
<text text-anchor="middle" x="1699.18" y="-587.7" font-family="Courier New" font-size="14.00">address: receiver (20)</text>
</g>
<!-- 2 -->
<g id="node3" class="node">
<title>2</title>
<polygon fill="#f2f2f2" stroke="black" points="1041.74,-386.5 1041.74,-560.1 1919.07,-560.1 1919.07,-386.5 1041.74,-386.5"/>
<text text-anchor="middle" x="1480.41" y="-543.5" font-family="Courier New" font-size="14.00">payments &lt;&lt;Struct&gt;&gt;</text>
<polyline fill="none" stroke="black" points="1041.74,-535.3 1919.07,-535.3 "/>
<text text-anchor="middle" x="1066.54" y="-518.7" font-family="Courier New" font-size="14.00">slot</text>
<polyline fill="none" stroke="black" points="1041.74,-510.5 1091.35,-510.5 "/>
<text text-anchor="middle" x="1066.54" y="-493.9" font-family="Courier New" font-size="14.00">9</text>
<polyline fill="none" stroke="black" points="1041.74,-485.7 1091.35,-485.7 "/>
<text text-anchor="middle" x="1066.54" y="-469.1" font-family="Courier New" font-size="14.00">10</text>
<polyline fill="none" stroke="black" points="1041.74,-460.9 1091.35,-460.9 "/>
<text text-anchor="middle" x="1066.54" y="-444.3" font-family="Courier New" font-size="14.00">11</text>
<polyline fill="none" stroke="black" points="1041.74,-436.1 1091.35,-436.1 "/>
<text text-anchor="middle" x="1066.54" y="-419.5" font-family="Courier New" font-size="14.00">12</text>
<polyline fill="none" stroke="black" points="1041.74,-411.3 1091.35,-411.3 "/>
<text text-anchor="middle" x="1066.54" y="-394.7" font-family="Courier New" font-size="14.00">13</text>
<polyline fill="none" stroke="black" points="1091.35,-386.5 1091.35,-535.3 "/>
<text text-anchor="middle" x="1505.21" y="-518.7" font-family="Courier New" font-size="14.00">type: variable (bytes)</text>
<polyline fill="none" stroke="black" points="1091.35,-510.5 1919.07,-510.5 "/>
<text text-anchor="middle" x="1504.86" y="-493.9" font-family="Courier New" font-size="14.00">uint256: amount (32)</text>
<polyline fill="none" stroke="black" points="1091.35,-485.7 1919.07,-485.7 "/>
<text text-anchor="middle" x="1504.86" y="-469.1" font-family="Courier New" font-size="14.00">uint256: finalAmount (32)</text>
<polyline fill="none" stroke="black" points="1091.35,-460.9 1919.07,-460.9 "/>
<text text-anchor="middle" x="1504.77" y="-444.3" font-family="Courier New" font-size="14.00">uint256: initialAmount (32)</text>
<polyline fill="none" stroke="black" points="1091.35,-436.1 1919.07,-436.1 "/>
<text text-anchor="middle" x="1162.36" y="-419.5" font-family="Courier New" font-size="14.00">unallocated (9)</text>
<polyline fill="none" stroke="black" points="1233.37,-411.3 1233.37,-436.1 "/>
<text text-anchor="middle" x="1325.38" y="-419.5" font-family="Courier New" font-size="14.00">address: sender (20)</text>
<polyline fill="none" stroke="black" points="1417.4,-411.3 1417.4,-436.1 "/>
<text text-anchor="middle" x="1496.81" y="-419.5" font-family="Courier New" font-size="14.00">bool: checked (1)</text>
<polyline fill="none" stroke="black" points="1576.22,-411.3 1576.22,-436.1 "/>
<text text-anchor="middle" x="1676.63" y="-419.5" font-family="Courier New" font-size="14.00">uint8: paymentType (1)</text>
<polyline fill="none" stroke="black" points="1777.05,-411.3 1777.05,-436.1 "/>
<text text-anchor="middle" x="1848.06" y="-419.5" font-family="Courier New" font-size="14.00">bool: valid (1)</text>
<polyline fill="none" stroke="black" points="1091.35,-411.3 1919.07,-411.3 "/>
<text text-anchor="middle" x="1285.56" y="-394.7" font-family="Courier New" font-size="14.00">unallocated (12)</text>
<polyline fill="none" stroke="black" points="1479.77,-386.5 1479.77,-411.3 "/>
<text text-anchor="middle" x="1699.18" y="-394.7" font-family="Courier New" font-size="14.00">address: receiver (20)</text>
</g>
<!-- 3 -->
<g id="node4" class="node">
<title>3</title>
<polygon fill="#f2f2f2" stroke="black" points="1041.74,-193.5 1041.74,-367.1 1919.07,-367.1 1919.07,-193.5 1041.74,-193.5"/>
<text text-anchor="middle" x="1480.41" y="-350.5" font-family="Courier New" font-size="14.00">payments &lt;&lt;Struct&gt;&gt;</text>
<polyline fill="none" stroke="black" points="1041.74,-342.3 1919.07,-342.3 "/>
<text text-anchor="middle" x="1066.54" y="-325.7" font-family="Courier New" font-size="14.00">slot</text>
<polyline fill="none" stroke="black" points="1041.74,-317.5 1091.35,-317.5 "/>
<text text-anchor="middle" x="1066.54" y="-300.9" font-family="Courier New" font-size="14.00">34</text>
<polyline fill="none" stroke="black" points="1041.74,-292.7 1091.35,-292.7 "/>
<text text-anchor="middle" x="1066.54" y="-276.1" font-family="Courier New" font-size="14.00">35</text>
<polyline fill="none" stroke="black" points="1041.74,-267.9 1091.35,-267.9 "/>
<text text-anchor="middle" x="1066.54" y="-251.3" font-family="Courier New" font-size="14.00">36</text>
<polyline fill="none" stroke="black" points="1041.74,-243.1 1091.35,-243.1 "/>
<text text-anchor="middle" x="1066.54" y="-226.5" font-family="Courier New" font-size="14.00">37</text>
<polyline fill="none" stroke="black" points="1041.74,-218.3 1091.35,-218.3 "/>
<text text-anchor="middle" x="1066.54" y="-201.7" font-family="Courier New" font-size="14.00">38</text>
<polyline fill="none" stroke="black" points="1091.35,-193.5 1091.35,-342.3 "/>
<text text-anchor="middle" x="1505.21" y="-325.7" font-family="Courier New" font-size="14.00">type: variable (bytes)</text>
<polyline fill="none" stroke="black" points="1091.35,-317.5 1919.07,-317.5 "/>
<text text-anchor="middle" x="1504.86" y="-300.9" font-family="Courier New" font-size="14.00">uint256: amount (32)</text>
<polyline fill="none" stroke="black" points="1091.35,-292.7 1919.07,-292.7 "/>
<text text-anchor="middle" x="1504.86" y="-276.1" font-family="Courier New" font-size="14.00">uint256: finalAmount (32)</text>
<polyline fill="none" stroke="black" points="1091.35,-267.9 1919.07,-267.9 "/>
<text text-anchor="middle" x="1504.77" y="-251.3" font-family="Courier New" font-size="14.00">uint256: initialAmount (32)</text>
<polyline fill="none" stroke="black" points="1091.35,-243.1 1919.07,-243.1 "/>
<text text-anchor="middle" x="1162.36" y="-226.5" font-family="Courier New" font-size="14.00">unallocated (9)</text>
<polyline fill="none" stroke="black" points="1233.37,-218.3 1233.37,-243.1 "/>
<text text-anchor="middle" x="1325.38" y="-226.5" font-family="Courier New" font-size="14.00">address: sender (20)</text>
<polyline fill="none" stroke="black" points="1417.4,-218.3 1417.4,-243.1 "/>
<text text-anchor="middle" x="1496.81" y="-226.5" font-family="Courier New" font-size="14.00">bool: checked (1)</text>
<polyline fill="none" stroke="black" points="1576.22,-218.3 1576.22,-243.1 "/>
<text text-anchor="middle" x="1676.63" y="-226.5" font-family="Courier New" font-size="14.00">uint8: paymentType (1)</text>
<polyline fill="none" stroke="black" points="1777.05,-218.3 1777.05,-243.1 "/>
<text text-anchor="middle" x="1848.06" y="-226.5" font-family="Courier New" font-size="14.00">bool: valid (1)</text>
<polyline fill="none" stroke="black" points="1091.35,-218.3 1919.07,-218.3 "/>
<text text-anchor="middle" x="1285.56" y="-201.7" font-family="Courier New" font-size="14.00">unallocated (12)</text>
<polyline fill="none" stroke="black" points="1479.77,-193.5 1479.77,-218.3 "/>
<text text-anchor="middle" x="1699.18" y="-201.7" font-family="Courier New" font-size="14.00">address: receiver (20)</text>
</g>
<!-- 4 -->
<g id="node5" class="node">
<title>4</title>
<polygon fill="#f2f2f2" stroke="black" points="1041.74,-0.5 1041.74,-174.1 1919.07,-174.1 1919.07,-0.5 1041.74,-0.5"/>
<text text-anchor="middle" x="1480.41" y="-157.5" font-family="Courier New" font-size="14.00">payments &lt;&lt;Struct&gt;&gt;</text>
<polyline fill="none" stroke="black" points="1041.74,-149.3 1919.07,-149.3 "/>
<text text-anchor="middle" x="1066.54" y="-132.7" font-family="Courier New" font-size="14.00">slot</text>
<polyline fill="none" stroke="black" points="1041.74,-124.5 1091.35,-124.5 "/>
<text text-anchor="middle" x="1066.54" y="-107.9" font-family="Courier New" font-size="14.00">39</text>
<polyline fill="none" stroke="black" points="1041.74,-99.7 1091.35,-99.7 "/>
<text text-anchor="middle" x="1066.54" y="-83.1" font-family="Courier New" font-size="14.00">40</text>
<polyline fill="none" stroke="black" points="1041.74,-74.9 1091.35,-74.9 "/>
<text text-anchor="middle" x="1066.54" y="-58.3" font-family="Courier New" font-size="14.00">41</text>
<polyline fill="none" stroke="black" points="1041.74,-50.1 1091.35,-50.1 "/>
<text text-anchor="middle" x="1066.54" y="-33.5" font-family="Courier New" font-size="14.00">42</text>
<polyline fill="none" stroke="black" points="1041.74,-25.3 1091.35,-25.3 "/>
<text text-anchor="middle" x="1066.54" y="-8.7" font-family="Courier New" font-size="14.00">43</text>
<polyline fill="none" stroke="black" points="1091.35,-0.5 1091.35,-149.3 "/>
<text text-anchor="middle" x="1505.21" y="-132.7" font-family="Courier New" font-size="14.00">type: variable (bytes)</text>
<polyline fill="none" stroke="black" points="1091.35,-124.5 1919.07,-124.5 "/>
<text text-anchor="middle" x="1504.86" y="-107.9" font-family="Courier New" font-size="14.00">uint256: amount (32)</text>
<polyline fill="none" stroke="black" points="1091.35,-99.7 1919.07,-99.7 "/>
<text text-anchor="middle" x="1504.86" y="-83.1" font-family="Courier New" font-size="14.00">uint256: finalAmount (32)</text>
<polyline fill="none" stroke="black" points="1091.35,-74.9 1919.07,-74.9 "/>
<text text-anchor="middle" x="1504.77" y="-58.3" font-family="Courier New" font-size="14.00">uint256: initialAmount (32)</text>
<polyline fill="none" stroke="black" points="1091.35,-50.1 1919.07,-50.1 "/>
<text text-anchor="middle" x="1162.36" y="-33.5" font-family="Courier New" font-size="14.00">unallocated (9)</text>
<polyline fill="none" stroke="black" points="1233.37,-25.3 1233.37,-50.1 "/>
<text text-anchor="middle" x="1325.38" y="-33.5" font-family="Courier New" font-size="14.00">address: sender (20)</text>
<polyline fill="none" stroke="black" points="1417.4,-25.3 1417.4,-50.1 "/>
<text text-anchor="middle" x="1496.81" y="-33.5" font-family="Courier New" font-size="14.00">bool: checked (1)</text>
<polyline fill="none" stroke="black" points="1576.22,-25.3 1576.22,-50.1 "/>
<text text-anchor="middle" x="1676.63" y="-33.5" font-family="Courier New" font-size="14.00">uint8: paymentType (1)</text>
<polyline fill="none" stroke="black" points="1777.05,-25.3 1777.05,-50.1 "/>
<text text-anchor="middle" x="1848.06" y="-33.5" font-family="Courier New" font-size="14.00">bool: valid (1)</text>
<polyline fill="none" stroke="black" points="1091.35,-25.3 1919.07,-25.3 "/>
<text text-anchor="middle" x="1285.56" y="-8.7" font-family="Courier New" font-size="14.00">unallocated (12)</text>
<polyline fill="none" stroke="black" points="1479.77,-0.5 1479.77,-25.3 "/>
<text text-anchor="middle" x="1699.18" y="-8.7" font-family="Courier New" font-size="14.00">address: receiver (20)</text>
</g>
<!-- 5&#45;&gt;1 -->
<g id="edge2" class="edge">
<title>5:17&#45;&gt;1</title>
<path fill="none" stroke="black" d="M1005.74,-426.3C1071.28,-426.3 994.74,-523.62 1041.74,-569.3 1042.83,-570.36 1043.93,-571.41 1045.04,-572.45"/>
<polygon fill="black" stroke="black" points="1042.7,-575.05 1052.47,-579.15 1047.39,-569.85 1042.7,-575.05"/>
</g>
<!-- 5&#45;&gt;2 -->
<g id="edge3" class="edge">
<title>5:18&#45;&gt;2</title>
<path fill="none" stroke="black" d="M1005.74,-401.3C1014.26,-401.3 1022.86,-401.42 1031.51,-401.64"/>
<polygon fill="black" stroke="black" points="1031.59,-405.14 1041.69,-401.94 1031.8,-398.14 1031.59,-405.14"/>
</g>
<!-- 5&#45;&gt;3 -->
<g id="edge4" class="edge">
<title>5:20&#45;&gt;3</title>
<path fill="none" stroke="black" d="M1005.74,-351.3C1014.26,-351.3 1022.85,-351.19 1031.5,-350.97"/>
<polygon fill="black" stroke="black" points="1031.79,-354.46 1041.68,-350.66 1031.58,-347.46 1031.79,-354.46"/>
</g>
<!-- 5&#45;&gt;4 -->
<g id="edge5" class="edge">
<title>5:21&#45;&gt;4</title>
<path fill="none" stroke="black" d="M1005.74,-327.3C1071.28,-327.3 994.74,-229.98 1041.74,-184.3 1042.83,-183.24 1043.93,-182.19 1045.04,-181.15"/>
<polygon fill="black" stroke="black" points="1047.39,-183.75 1052.47,-174.45 1042.7,-178.55 1047.39,-183.75"/>
</g>
</g>
</svg>
